<?xml version="1.0" standalone="no"?>
<!DOCTYPE svg PUBLIC "-//W3C//DTD SVG 20010904//EN"
 "http://www.w3.org/TR/2001/REC-SVG-20010904/DTD/svg10.dtd">
<svg version="1.0" xmlns="http://www.w3.org/2000/svg"
 width="960.000000pt" height="960.000000pt" viewBox="0 0 960.000000 960.000000"
 preserveAspectRatio="xMidYMid meet">
<metadata>
Created by potrace 1.11, written by Peter Selinger 2001-2013
</metadata>
<g transform="translate(0.000000,960.000000) scale(0.100000,-0.100000)"
fill="#000000" stroke="none">
<path d="M7073 7952 c-19 -2 -39 -12 -48 -25 l-15 -21 -16 22 c-8 12 -22 22
-31 22 -14 0 -15 -36 -3 -117 0 -2 13 -3 29 -3 23 0 30 -5 34 -27 7 -38 -18
-73 -54 -73 -22 0 -32 -7 -44 -30 -9 -16 -20 -30 -25 -30 -6 0 -6 -9 0 -24 7
-21 6 -23 -11 -19 -11 3 -22 10 -25 15 -3 5 -12 3 -21 -4 -9 -7 -34 -14 -57
-15 -23 -1 -67 -5 -100 -9 l-59 -7 21 21 c30 30 17 59 -41 97 -37 25 -43 34
-36 48 6 9 7 22 4 27 -9 15 -35 12 -42 -5 -5 -14 -8 -14 -24 1 -12 11 -27 14
-44 10 -13 -3 -40 0 -58 8 -23 9 -39 10 -50 4 -21 -11 -38 -2 -30 17 6 16 -22
21 -31 6 -4 -5 -18 -7 -34 -5 -16 2 -39 -4 -56 -15 -45 -30 -197 -183 -207
-208 -5 -13 -15 -23 -22 -23 -8 0 -22 -9 -32 -20 -10 -12 -24 -19 -30 -16 -6
2 -19 -2 -30 -10 -28 -21 -54 -17 -93 13 -44 33 -92 34 -135 3 -16 -13 -27
-18 -23 -12 18 29 -75 21 -122 -11 -21 -14 -53 -28 -72 -32 -19 -4 -46 -13
-61 -20 -15 -8 -56 -13 -105 -12 -79 2 -79 2 -82 -25 -2 -20 2 -28 19 -33 18
-6 19 -9 8 -20 -19 -18 -58 -26 -154 -29 -44 -2 -95 -6 -112 -10 -22 -5 -33
-4 -33 3 0 6 -15 18 -32 27 -18 9 -42 30 -53 47 -24 38 -50 45 -76 21 -16 -14
-16 -19 -5 -28 7 -6 16 -26 19 -43 8 -39 -6 -48 -73 -52 -25 -2 -48 -5 -51 -7
-3 -2 -46 -6 -95 -10 -49 -3 -92 -8 -96 -11 -4 -2 -24 4 -45 13 -21 8 -47 18
-58 20 -11 2 -31 6 -45 9 -14 4 -53 8 -87 10 -43 3 -72 11 -91 25 -24 18 -38
20 -83 16 -30 -3 -63 -7 -74 -10 -11 -2 -40 -7 -65 -10 -62 -8 -76 -12 -147
-34 -61 -19 -63 -19 -63 -1 0 26 -34 43 -60 29 -11 -6 -20 -15 -20 -20 0 -6
-9 -10 -20 -10 -25 0 -42 -32 -34 -64 4 -19 -1 -32 -24 -54 -31 -30 -100 -51
-123 -37 -18 11 -338 15 -366 4 -18 -7 -33 -5 -54 5 -16 8 -31 10 -35 5 -3 -5
-20 -9 -39 -9 -62 0 -132 -20 -156 -46 -15 -16 -33 -24 -56 -24 -19 0 -51 -9
-72 -20 -21 -10 -80 -35 -131 -54 -115 -43 -142 -69 -215 -211 -31 -60 -61
-114 -65 -119 -5 -5 -16 -2 -25 7 -12 13 -21 14 -43 6 -15 -6 -49 -13 -77 -16
-34 -3 -58 -13 -75 -29 -20 -18 -35 -23 -65 -21 -32 2 -42 -2 -49 -20 -7 -14
-54 -41 -149 -85 -77 -34 -163 -80 -191 -101 -28 -21 -78 -52 -112 -68 -35
-17 -66 -39 -74 -54 -7 -14 -17 -25 -21 -25 -4 0 -28 -31 -54 -70 -36 -52 -59
-74 -91 -90 -24 -11 -44 -25 -44 -30 0 -6 -6 -10 -14 -10 -7 0 -18 -6 -25 -13
-6 -8 -25 -13 -43 -12 -55 3 -77 -34 -42 -69 21 -22 9 -36 -30 -36 -17 0 -37
-5 -43 -11 -7 -7 -22 -8 -44 -2 -19 5 -41 7 -49 5 -20 -4 -76 -102 -84 -146
-4 -21 -13 -36 -21 -36 -14 0 -63 -57 -85 -99 -7 -14 -12 -48 -11 -76 1 -52
-21 -95 -47 -95 -15 0 -45 -47 -38 -58 3 -5 -7 -12 -23 -15 -30 -6 -45 -26
-96 -124 -23 -46 -27 -66 -30 -160 -1 -59 -6 -116 -10 -126 -6 -14 -2 -20 14
-24 16 -4 21 -13 21 -39 0 -19 -3 -34 -7 -35 -5 0 -15 -2 -23 -4 -8 -1 -35 -6
-60 -10 -59 -9 -75 -18 -90 -54 -17 -43 -7 -61 34 -61 36 0 41 -9 53 -85 2
-16 7 -37 10 -45 11 -28 14 -45 15 -83 0 -33 8 -46 54 -93 30 -30 59 -52 65
-49 5 4 19 -14 30 -39 l20 -46 -26 -27 c-14 -16 -31 -40 -38 -55 -6 -16 -17
-28 -23 -28 -30 0 -54 -36 -56 -80 -2 -68 1 -80 17 -80 9 0 15 -10 16 -22 0
-13 3 -32 5 -43 3 -11 6 -29 8 -40 2 -21 75 -64 109 -65 22 0 37 -38 37 -96 0
-48 5 -55 85 -123 22 -18 50 -37 62 -42 13 -5 24 -16 25 -26 0 -10 2 -24 2
-30 2 -18 26 -52 67 -95 27 -28 41 -36 57 -31 12 3 22 9 22 14 0 4 9 13 20 19
18 10 23 6 40 -32 11 -24 26 -51 34 -61 10 -12 13 -35 10 -65 -6 -68 25 -117
106 -167 35 -22 86 -61 112 -87 26 -27 53 -48 59 -48 6 0 22 -11 35 -25 16
-18 33 -25 59 -25 21 0 34 -4 30 -10 -9 -15 39 -91 91 -143 25 -26 49 -47 52
-47 4 0 15 -14 24 -30 l17 -30 -35 -26 c-18 -15 -34 -35 -34 -45 0 -24 34 -85
74 -130 17 -20 50 -62 73 -95 71 -100 171 -194 206 -194 16 0 17 -3 7 -15 -10
-12 -7 -18 21 -32 18 -10 52 -36 74 -58 52 -50 93 -85 102 -85 3 0 28 -14 54
-30 26 -17 69 -39 95 -48 27 -9 69 -31 94 -48 47 -32 73 -45 104 -51 10 -2 29
-12 43 -23 14 -11 30 -20 35 -20 8 0 183 -67 273 -104 66 -28 162 -53 228 -61
26 -3 68 -8 95 -12 26 -4 67 -6 92 -5 25 1 65 -5 90 -14 45 -16 47 -16 95 9
34 18 72 28 121 32 39 3 82 8 95 10 13 3 62 8 109 11 47 4 87 8 89 10 2 2 12
-3 22 -12 22 -20 71 -21 101 -3 19 12 29 13 58 3 53 -19 67 -17 87 16 9 17 20
30 23 31 3 0 26 2 51 4 25 2 64 12 86 24 22 11 43 17 47 14 7 -7 55 -13 105
-14 19 0 43 -5 53 -10 11 -6 24 -7 31 -2 13 10 31 10 100 -1 34 -6 56 -4 80 6
18 8 51 13 77 11 94 -8 149 -3 205 18 43 16 59 18 65 9 5 -8 21 -10 51 -5 24
3 64 2 89 -4 82 -18 109 -21 114 -12 3 4 23 7 45 5 44 -3 74 18 126 88 22 30
34 38 59 38 18 0 49 9 70 19 26 14 53 19 88 17 40 -3 55 1 78 20 16 14 41 24
59 24 18 0 50 8 71 19 28 13 52 17 84 14 36 -4 47 -2 52 11 3 9 16 16 28 16
12 0 27 5 32 10 6 6 21 12 33 15 28 5 51 23 51 40 0 26 41 66 61 60 20 -7 134
28 157 47 8 7 12 7 12 -1 0 -7 10 -11 23 -10 24 3 111 -22 148 -41 18 -10 24
-9 31 4 12 21 35 20 47 -1 6 -12 20 -17 41 -15 29 2 31 1 16 -14 -18 -18 -13
-34 11 -34 9 0 21 -7 28 -16 15 -21 55 -10 55 14 0 13 9 17 37 17 l38 0 1 53
c0 44 5 58 26 77 14 13 28 29 30 35 2 6 11 8 21 4 10 -3 16 -12 13 -19 -6 -18
26 -25 70 -15 46 11 48 13 48 60 0 26 5 40 13 40 7 0 18 9 25 20 7 11 17 20
23 20 5 0 16 4 24 9 21 13 -9 63 -54 89 -17 10 -16 11 11 6 17 -3 41 -1 53 5
16 9 33 8 76 -4 76 -23 154 -17 178 13 10 12 23 19 28 16 16 -9 249 -13 272
-5 16 6 26 2 40 -15 25 -32 58 -30 137 9 47 23 66 38 68 55 2 12 -1 22 -7 22
-21 0 -11 21 14 30 14 5 25 15 25 21 0 8 15 10 46 6 43 -4 45 -4 40 17 -4 17
2 28 24 45 17 12 30 28 30 36 0 8 7 15 15 15 8 0 15 8 15 18 0 9 9 23 20 30
17 10 25 10 48 -3 39 -21 76 -54 68 -62 -3 -3 0 -13 8 -22 8 -9 16 -25 18 -36
2 -14 12 -20 38 -22 19 -2 41 -10 49 -18 12 -12 18 -11 43 6 21 15 26 24 19
37 -11 19 6 61 32 81 11 8 17 21 14 32 -4 13 4 25 23 39 23 16 27 26 25 57 -1
21 2 47 8 58 6 11 10 28 9 37 -2 9 6 19 18 23 13 4 20 15 20 31 0 21 4 24 25
20 20 -4 26 0 31 19 3 13 17 28 31 32 40 14 84 129 86 223 2 79 1 77 75 158
12 14 20 32 17 40 -3 8 6 38 19 66 14 28 28 65 31 81 9 40 37 118 46 131 5 6
14 35 20 65 6 30 27 82 46 117 19 34 37 77 39 95 3 17 15 41 27 52 22 20 104
242 93 252 -5 6 25 69 53 112 9 14 16 29 16 35 1 6 6 22 12 36 6 14 9 38 8 53
-2 15 1 29 6 33 5 3 6 16 3 29 -3 13 -1 32 5 42 5 11 12 38 15 61 3 23 7 46
10 50 5 9 -30 146 -45 174 -16 29 -20 92 -10 137 6 27 5 41 -1 41 -6 0 -8 9
-5 20 3 11 -1 27 -9 34 -17 17 -18 38 -4 52 7 7 2 33 -16 80 -42 111 -52 146
-57 199 -8 69 -29 155 -38 155 -8 0 -43 58 -44 72 0 3 -2 9 -6 12 -3 3 -3 21
-1 41 4 34 5 35 26 22 32 -21 49 -11 30 18 -14 22 -43 38 -68 40 -5 0 -10 15
-11 33 -1 18 -6 37 -12 43 -7 7 -9 17 -6 24 2 7 -3 27 -11 44 -10 18 -12 32
-6 36 5 3 6 15 1 28 -5 12 -7 33 -4 46 2 14 -1 27 -5 30 -5 3 -12 29 -16 56
-3 28 -8 64 -11 80 -3 17 -8 57 -11 90 -4 35 -13 65 -22 72 -12 10 -13 15 -2
27 10 13 9 19 -4 32 -12 11 -14 20 -6 28 5 7 7 16 3 19 -3 4 -7 17 -8 30 -1
12 -8 54 -15 92 -6 39 -13 79 -15 90 -1 11 -3 20 -4 20 -2 0 -4 14 -7 30 -2
17 -6 50 -10 75 -4 25 -6 66 -6 93 1 40 -2 47 -18 47 -11 0 -41 22 -68 49 -26
26 -58 52 -70 55 -16 5 -21 13 -17 25 4 14 -1 18 -22 19 -16 1 -39 4 -53 6
-28 4 -80 24 -66 25 5 1 3 8 -4 16 -9 11 -16 12 -29 3 -14 -9 -27 -6 -57 10
-21 11 -52 23 -69 25 -48 8 -103 32 -128 55 -13 12 -33 22 -45 22 -26 0 -122
60 -149 92 -10 13 -25 24 -33 26 -8 2 -22 11 -31 20 -9 9 -44 34 -78 55 -33
20 -61 44 -61 52 0 8 -5 15 -10 15 -6 0 -23 12 -40 26 -16 15 -47 36 -69 48
-22 11 -64 36 -94 54 -30 18 -96 48 -146 66 l-92 34 -63 -17 c-65 -18 -121
-52 -108 -66 4 -4 0 -6 -8 -3 -8 2 -16 14 -18 26 -3 20 -50 42 -89 42 -7 0
-12 5 -10 11 3 15 -31 25 -70 21z"/>
</g>
</svg>
